<svg width="565" height="223" viewBox="0 0 565 223" fill="none" xmlns="http://www.w3.org/2000/svg">
<path d="M154.28 34.9271C103.796 -2.18303 41.2486 -2.84376 14.5731 33.4495C11.9994 36.9486 9.85474 40.6646 8.13127 44.5494C-8.08661 80.9999 12.0727 132.814 57.6876 166.339C73.9732 178.304 91.5119 186.482 108.694 190.848C117.189 193.006 125.602 194.234 133.728 194.531C160.134 195.494 183.575 186.614 197.388 167.817C199.27 165.257 200.924 162.586 202.35 159.81C221.187 123.248 201.196 69.4103 154.28 34.9271ZM94.9309 115.674C85.9428 109.063 82.2132 98.6825 86.1176 91.8135C86.3284 91.4324 86.5667 91.0576 86.833 90.7028C91.8406 83.8853 103.591 84.0078 113.08 90.9774C122.562 97.954 126.193 109.131 121.178 115.948C119.855 117.75 118.062 119.062 115.965 119.895C110.12 122.226 101.908 120.801 94.9309 115.674Z" fill="#F5AF41"/>
<g opacity="0.3">
<path d="M141.271 181.601C133.145 181.304 124.732 180.076 116.237 177.918C99.0544 173.552 81.5156 165.373 65.2301 153.409C19.6151 119.884 -0.544233 68.0697 15.6737 31.6194C15.7308 31.4908 15.7921 31.364 15.8499 31.2358C15.7022 31.4228 15.5612 31.6167 15.4154 31.8057C13.6463 34.5085 12.1171 37.3265 10.8248 40.2393C-5.39309 76.6896 14.7663 128.504 60.3813 162.029C76.6667 173.993 94.2055 182.172 111.388 186.538C119.883 188.696 128.296 189.924 136.422 190.221C162.253 191.163 185.241 182.68 199.161 164.714C198.921 165.078 198.676 165.44 198.43 165.802C199.883 163.695 201.195 161.519 202.35 159.271C202.809 158.379 203.238 157.474 203.652 156.563C189.698 174.211 166.879 182.535 141.271 181.601Z" fill="#6D184E"/>
</g>
<g opacity="0.3">
<path d="M127.593 116.35C134.42 106.944 129.944 92.0522 117.594 83.0889C105.245 74.1256 89.6992 74.4849 82.8719 83.8914C76.0445 93.2979 80.5209 108.19 92.8702 117.153C105.219 126.116 120.765 125.757 127.593 116.35Z" fill="#6D184E"/>
</g>
<path d="M137.596 197.156C137.211 197.156 136.829 197.154 136.441 197.149C109.526 196.865 81.0217 186.652 56.1792 168.393C31.3366 150.134 13.081 125.978 4.77507 100.374C-3.62792 74.4726 -0.876304 50.169 12.5227 31.9387C25.9216 13.7092 48.2812 3.81007 75.5249 4.11576C102.441 4.40044 130.945 14.613 155.787 32.8721C180.63 51.1312 198.885 75.2875 207.191 100.891C215.594 126.792 212.843 151.097 199.443 169.326C186.235 187.297 164.301 197.155 137.596 197.156ZM74.373 9.20565C49.3277 9.20565 28.852 18.3265 16.6285 34.9567C-9.16939 70.056 9.92682 128.073 59.1969 164.287C108.468 200.501 169.54 201.408 195.338 166.309C221.135 131.209 202.04 73.1922 152.769 36.9781C128.78 19.3456 101.328 9.48451 75.4712 9.21147C75.1048 9.20727 74.7376 9.20565 74.373 9.20565ZM109.915 123.491C104.569 123.491 98.6572 121.572 93.421 117.724C88.4071 114.039 84.7132 109.134 83.0198 103.915C81.23 98.3978 81.8536 93.1696 84.7765 89.1932C90.6115 81.254 103.985 81.1346 114.587 88.9265C125.189 96.7189 129.067 109.518 123.231 117.458C120.278 121.476 115.393 123.491 109.915 123.491ZM98.0465 88.184C94.1973 88.184 90.8633 89.5162 88.8825 92.211C86.9576 94.8295 86.597 98.4276 87.867 102.342C89.2336 106.555 92.2778 110.56 96.4389 113.618C104.777 119.747 114.954 120.114 119.126 114.44C123.297 108.764 119.907 99.1611 111.569 93.0322C107.19 89.814 102.304 88.184 98.0465 88.184Z" fill="#6D184E"/>
<path d="M155.39 32.3526C131.052 14.4636 103.983 4.84173 79.2824 3.51975L79.2949 3.50908C15.5317 -4.91008 0.835626 45.2065 12.7258 42.8425C14.709 42.4479 16.4093 42.3626 17.8754 42.4858C17.7267 43.1863 17.5774 43.8859 17.4467 44.6134C11.4823 77.9192 47.3621 84.2387 33.7633 105.605C20.1638 126.972 37.4856 137.602 51.3355 128.405L51.4317 128.342C57.601 124.312 66.015 126.756 69.1689 133.416C70.7297 136.711 71.9668 140.678 71.8264 144.82C71.3972 157.473 69.0483 167.943 86.2492 167.572C91.3226 167.462 93.5666 161.383 92.2524 156.447C89.2793 145.281 103.843 142.625 109.498 150.082C110.846 151.859 111.823 153.73 112.198 155.506C112.786 160.852 111.978 167.001 109.659 172.802C103.995 186.972 96.2301 217.696 119.113 220.186C141.995 222.677 120.847 170.453 138.186 171.014C155.524 171.576 157.35 180.199 173.484 168.378C189.618 156.557 198.11 148.646 204.978 152.244C211.846 155.842 211.923 128.625 211.923 128.625C211.642 95.844 191.137 58.6271 155.39 32.3526ZM155.942 107.912C145.648 121.918 121.507 121.662 102.022 107.341C85.6565 95.3121 77.7868 77.1875 81.7855 63.3933C82.0662 62.6465 87.4124 48.9292 97.5735 60.5001C108.016 72.3912 109.992 74.4558 122.729 70.6685C135.466 66.8807 127.718 90.2283 140.58 92.2331C153.442 94.2378 160.173 96.0853 155.942 107.912Z" fill="#FF33BB"/>
<g opacity="0.3">
<path d="M53.1391 67.3987C53.323 68.5088 53.928 69.4808 54.8427 70.1358C55.5658 70.6536 56.4141 70.9242 57.2855 70.9242C57.517 70.9242 57.7501 70.9051 57.9829 70.8666C59.093 70.6827 60.0651 70.078 60.7201 69.163C61.3754 68.248 61.6347 67.1329 61.4511 66.0228L59.7371 55.6687C59.5531 54.5585 58.9484 53.5865 58.0334 52.9315C57.1185 52.2762 56.0036 52.0177 54.8933 52.2004C54.8933 52.2004 54.8933 52.2004 54.893 52.2004C52.6017 52.58 51.046 54.7531 51.4253 57.0444L53.1391 67.3987Z" fill="#6D184E"/>
<path d="M102.812 47.6874C102.844 47.6874 102.875 47.6872 102.907 47.6864C104.032 47.6617 105.08 47.2005 105.858 46.3879C107.464 44.7098 107.405 42.0381 105.728 40.4317L98.1459 33.1746C97.3331 32.3969 96.2703 31.9779 95.141 32.0064C94.0162 32.031 92.9681 32.4922 92.19 33.3048C90.5839 34.9829 90.6423 37.6548 92.3201 39.2611L99.9018 46.5181C100.692 47.2742 101.722 47.6874 102.812 47.6874Z" fill="#6D184E"/>
<path d="M153.616 87.3421C153.984 86.2785 153.915 85.1358 153.423 84.124L148.831 74.6864C147.815 72.5977 145.289 71.7257 143.2 72.7413C141.112 73.7575 140.239 76.2835 141.255 78.3721L145.847 87.8094C146.339 88.8214 147.196 89.5808 148.259 89.9484C148.71 90.1039 149.175 90.1812 149.638 90.1812C150.268 90.1812 150.895 90.0381 151.477 89.7545C152.49 89.2624 153.249 88.4057 153.616 87.3421Z" fill="#6D184E"/>
<path d="M79.4173 107.064C77.1002 106.859 75.0515 108.566 74.8416 110.879L73.8938 121.331C73.7923 122.452 74.1329 123.545 74.8534 124.409C75.5739 125.273 76.5878 125.805 77.7085 125.907C77.8384 125.919 77.9676 125.924 78.0965 125.924C79.0791 125.924 80.0224 125.584 80.7866 124.947C81.6507 124.227 82.1827 123.213 82.2842 122.092L83.232 111.64C83.3335 110.519 82.9929 109.426 82.2723 108.562C81.5518 107.698 80.538 107.166 79.4173 107.064Z" fill="#6D184E"/>
<path d="M55.6084 91.9806L46.723 97.5657C44.7564 98.8018 44.1621 101.407 45.3982 103.374C46.1976 104.646 47.5695 105.343 48.9714 105.343C49.7369 105.343 50.5116 105.135 51.2064 104.699L60.0921 99.1136C62.0585 97.8775 62.6528 95.2721 61.4169 93.3052C60.181 91.3393 57.5756 90.7445 55.6084 91.9806Z" fill="#6D184E"/>
<path d="M140.691 150.123C139.455 148.156 136.849 147.562 134.883 148.798L125.997 154.383C124.031 155.619 123.437 158.225 124.673 160.191C125.472 161.463 126.844 162.161 128.246 162.161C129.012 162.161 129.786 161.953 130.481 161.516L139.367 155.931C141.333 154.695 141.927 152.089 140.691 150.123H140.691Z" fill="#6D184E"/>
<path d="M158.641 121.999C158.229 120.952 157.434 120.128 156.402 119.68C155.37 119.231 154.225 119.211 153.178 119.624C152.131 120.036 151.307 120.831 150.859 121.863C150.41 122.895 150.39 124.04 150.803 125.086L154.649 134.852C155.061 135.898 155.856 136.722 156.888 137.171C157.427 137.405 157.996 137.523 158.567 137.523C159.089 137.523 159.611 137.424 160.111 137.227C161.158 136.815 161.982 136.02 162.431 134.988C162.88 133.956 162.9 132.811 162.487 131.764L158.641 121.999Z" fill="#6D184E"/>
<path d="M127.098 53.1342L137.181 56.0468C137.568 56.1588 137.963 56.2143 138.356 56.2143C139.058 56.2143 139.753 56.0368 140.385 55.6882C141.37 55.1447 142.084 54.25 142.397 53.1689C143.041 50.9374 141.75 48.5974 139.519 47.9529L129.436 45.04C127.205 44.3971 124.865 45.6866 124.22 47.9179H124.22C123.575 50.1494 124.866 52.4894 127.098 53.1342Z" fill="#6D184E"/>
<path d="M177.475 99.3293L167.392 96.4163C165.162 95.7729 162.821 97.0632 162.176 99.2942C161.864 100.375 161.991 101.513 162.534 102.498C163.078 103.483 163.973 104.198 165.054 104.51L175.137 107.423C175.526 107.536 175.918 107.589 176.304 107.589C178.132 107.589 179.82 106.388 180.353 104.545C180.997 102.314 179.706 99.9738 177.475 99.3293Z" fill="#6D184E"/>
<path d="M196.181 138.263C195.417 137.437 194.377 136.958 193.253 136.914C192.127 136.872 191.055 137.266 190.229 138.03L182.523 145.156C181.697 145.92 181.218 146.96 181.174 148.084C181.13 149.209 181.527 150.283 182.291 151.109C183.055 151.935 184.095 152.414 185.219 152.458C185.275 152.46 185.331 152.461 185.387 152.461C186.45 152.461 187.459 152.067 188.243 151.341L195.949 144.215C197.654 142.638 197.758 139.968 196.181 138.263Z" fill="#6D184E"/>
<path d="M162.996 80.7208C163.733 81.2727 164.609 81.5629 165.514 81.5629C165.715 81.5629 165.917 81.5485 166.12 81.5195L176.509 80.0314C177.623 79.872 178.608 79.2882 179.283 78.3877C179.957 77.4873 180.241 76.3782 180.082 75.2644C179.922 74.1506 179.338 73.1654 178.438 72.4907C177.538 71.8162 176.428 71.5326 175.315 71.6917L164.926 73.1798C162.626 73.5092 161.024 75.6479 161.353 77.947C161.512 79.061 162.096 80.0461 162.996 80.7208Z" fill="#6D184E"/>
<path d="M101.837 124.269L94.2926 131.565C92.6232 133.18 92.5785 135.852 94.1929 137.521C94.9753 138.33 96.0256 138.786 97.1508 138.805C97.1747 138.805 97.1989 138.805 97.2228 138.805C98.3211 138.805 99.3581 138.386 100.15 137.621L107.694 130.325C108.503 129.542 108.959 128.492 108.977 127.367C108.996 126.242 108.575 125.177 107.793 124.368C106.179 122.699 103.507 122.654 101.837 124.269Z" fill="#6D184E"/>
<path d="M65.4422 26.4223C64.1101 24.5201 61.4779 24.0561 59.5754 25.3879C57.6727 26.72 57.2087 29.352 58.541 31.2547L64.5609 39.8518C65.3793 41.0209 66.6883 41.6467 68.0175 41.6467C68.8517 41.6467 69.694 41.4 70.4277 40.8862C72.3305 39.5541 72.7944 36.9221 71.4621 35.0195L65.4422 26.4223Z" fill="#6D184E"/>
</g>
<path d="M51.254 16.9883C51.1096 18.4335 50.4439 19.7588 49.5552 20.9074C42.3451 30.2261 51.3196 51.3722 39.4885 52.3975C27.5548 53.4317 28.3804 26.5609 36.2703 17.8283C46.2345 6.79994 51.9181 10.3409 51.254 16.9883Z" fill="#FF5CC9"/>
<path d="M184.624 107.086C184.624 107.086 185.331 122.33 169.278 130.701C153.224 139.072 184.003 144.318 193.002 127.878C202.002 111.439 186.539 97.761 184.624 107.086Z" fill="#FF5CC9"/>
<g opacity="0.5">
<path d="M213.002 128.085C212.718 95.3047 192.217 58.0871 156.466 31.8108C152.007 28.532 147.451 25.5292 142.84 22.8152C141.992 22.3144 141.141 21.8261 140.289 21.3443C140.29 21.2272 140.293 21.1103 140.289 20.9932C137.704 19.6418 135.097 18.3837 132.475 17.2107C124.297 13.1781 116.006 9.98967 107.767 7.65602C98.4818 5.01561 89.2675 3.46217 80.3572 2.98387L80.3705 2.96986C60.1852 0.304883 44.9192 3.51034 33.8523 9.05537C43.6164 6.58509 55.4212 5.7343 69.5029 7.5932L69.4893 7.60031C80.634 8.19455 92.231 10.3948 103.87 14.1961C104.646 14.4487 105.422 14.7088 106.198 14.9757C104.929 20.831 109.386 27.4389 117.218 30.5964C124.228 33.4223 131.828 32.6296 136.333 29.0714C137.587 29.8221 138.837 30.5879 140.081 31.3775C143.371 33.4629 146.616 35.6794 149.823 38.0337C187.556 65.7734 209.204 105.054 209.5 139.655C209.5 139.655 209.479 145.351 208.822 151.336C212.947 147.392 213.002 128.085 213.002 128.085Z" fill="white"/>
</g>
<path d="M120.638 222.82C120.056 222.82 119.455 222.786 118.837 222.718C112.263 222.003 107.42 219.127 104.442 214.171C96.6064 201.131 104.643 178.486 107.293 171.856C109.369 166.664 110.215 161.009 109.679 155.917C109.38 154.62 108.618 153.137 107.468 151.621C104.993 148.358 100.151 147.718 97.1818 149.17C94.733 150.367 93.8798 152.656 94.7143 155.791C95.7237 159.582 95.0029 163.857 92.8784 166.685C91.2566 168.842 88.9222 170.061 86.3044 170.118C79.8481 170.253 75.3508 168.927 72.5524 166.05C68.4547 161.837 68.7793 155.254 69.1234 148.285C69.1805 147.126 69.2391 145.94 69.2799 144.734C69.3878 141.557 68.5755 138.116 66.8661 134.505C65.6658 131.971 63.4108 130.076 60.6792 129.305C57.9889 128.547 55.1258 128.972 52.8255 130.474L52.7569 130.52C45.0111 135.663 35.8155 135.527 30.3822 130.198C24.487 124.416 24.9474 114.711 31.6139 104.237C37.3613 95.2067 33.1246 89.7456 26.7115 81.4786C20.1473 73.017 12.0055 62.5223 14.7821 45.0929C14.2768 45.1524 13.7567 45.2349 13.2232 45.3413C10.9337 45.7969 8.909 45.0403 7.66761 43.2673C5.22481 39.7775 6.40306 32.9827 10.6689 25.9568C13.5418 21.2254 20.3614 12.3802 33.7581 6.29923C46.6373 0.45293 62.0709 -1.33583 79.6289 0.982736C79.6449 0.984891 79.6612 0.986941 79.6773 0.989635C105.739 2.44275 133.153 12.8458 156.899 30.2995C192.113 56.1815 214.173 93.8493 214.471 128.603C214.47 128.85 214.449 134.041 213.849 139.669C212.681 150.644 210.408 153.331 208.559 154.447C207.1 155.327 205.409 155.345 203.796 154.501C199.385 152.187 192.758 157.156 181.781 165.383C179.638 166.989 177.423 168.65 174.99 170.433C163.273 179.018 158.06 177.618 150.845 175.681C147.456 174.771 143.616 173.739 138.104 173.561C136.626 173.514 135.932 174.028 135.538 174.419C132.816 177.118 133.028 185.9 133.216 193.647C133.469 204.144 133.732 214.998 128.207 220.076C126.222 221.9 123.682 222.82 120.638 222.82ZM100.674 143.333C104.605 143.333 108.789 144.931 111.528 148.543C113.187 150.729 114.25 152.895 114.691 154.98C114.708 155.061 114.721 155.144 114.73 155.227C115.384 161.17 114.424 167.747 112.025 173.747C107.247 185.701 103.538 202.773 108.81 211.546C110.953 215.114 114.414 217.112 119.388 217.653C121.749 217.909 123.505 217.475 124.758 216.325C128.582 212.81 128.337 202.695 128.121 193.77C127.888 184.142 127.668 175.047 131.949 170.801C133.593 169.17 135.72 168.383 138.268 168.468C144.369 168.665 148.692 169.826 152.166 170.76C158.657 172.502 162.233 173.463 171.978 166.323C174.388 164.557 176.593 162.904 178.725 161.306C191.265 151.906 198.851 146.218 206.091 149.951C207.801 148.301 209.345 138.392 209.375 128.617C209.091 95.4669 187.827 59.3559 153.881 34.4056C130.847 17.4755 104.305 7.41024 79.1465 6.06445C78.9947 6.05604 78.8461 6.03503 78.7017 6.00077C41.4206 1.16732 20.1868 16.8515 13.3259 31.785C10.8747 37.1199 11.4844 40.0367 11.8752 40.3861C11.8699 40.3755 11.9972 40.3897 12.229 40.3434C14.3127 39.9288 16.2841 39.7957 18.089 39.9467C18.8179 40.0082 19.4853 40.3797 19.9215 40.9668C20.3573 41.5539 20.5203 42.3 20.3682 43.0156L20.3527 43.0877C20.2146 43.7374 20.076 44.3872 19.9552 45.0622C17.1334 60.8185 24.361 70.1356 30.7379 78.3558C37.3452 86.8726 43.5861 94.9176 35.9128 106.973C30.6344 115.266 29.9008 122.589 33.9503 126.56C37.5898 130.13 44.3081 130.013 49.9261 126.283L50.0429 126.206C53.5719 123.901 57.9542 123.242 62.0627 124.401C66.2114 125.571 69.641 128.46 71.4717 132.325C73.5325 136.677 74.5085 140.91 74.373 144.907C74.3311 146.139 74.2715 147.352 74.213 148.536C73.9129 154.62 73.6535 159.874 76.2052 162.497C77.9635 164.304 81.2332 165.13 86.1947 165.023C87.2602 165.001 88.1141 164.543 88.8049 163.623C90.007 162.024 90.403 159.403 89.7906 157.103C88.3385 151.649 90.3136 146.855 94.9447 144.592C96.6206 143.773 98.6125 143.333 100.674 143.333ZM132.827 120.75C122.413 120.75 110.814 116.965 100.514 109.394C83.6639 97.0093 74.9563 77.8011 79.3386 62.6839C79.3568 62.6208 79.3773 62.5587 79.4004 62.4972C79.8981 61.1724 82.6708 54.5096 88.3917 53.4647C92.0492 52.796 95.7816 54.5981 99.4881 58.8186C109.639 70.3786 110.7 71.5855 122.003 68.2263C124.737 67.4129 127.077 67.5602 128.958 68.6641C132.274 70.6097 133.243 74.927 134.18 79.1023C135.561 85.2627 136.708 89.0508 140.972 89.7153C149.512 91.0464 155.766 92.3412 158.477 96.9016C160.228 99.8474 160.185 103.619 158.341 108.77C158.258 109.002 158.142 109.222 157.995 109.421C152.444 116.973 143.226 120.75 132.827 120.75ZM84.2042 64.2013C80.4734 77.2928 88.4076 94.1718 103.531 105.288C121.71 118.649 144.093 119.245 153.668 106.698C154.828 103.327 154.968 100.972 154.096 99.5051C152.529 96.8687 146.87 95.7917 140.188 94.75C132.188 93.5031 130.465 85.8243 129.207 80.2175C128.509 77.1038 127.787 73.8846 126.38 73.059C125.766 72.6985 124.782 72.7164 123.456 73.1106C109.024 77.4016 106.193 74.1766 95.659 62.1809C93.9796 60.2684 91.5118 58.0692 89.3073 58.4775C86.7563 58.9433 84.795 62.6839 84.2042 64.2013Z" fill="#6D184E"/>
<g opacity="0.3">
<path d="M156.97 99.8963C156.969 99.8949 156.969 99.8934 156.968 99.892C156.969 99.8934 156.969 99.8949 156.97 99.8963Z" fill="#6D184E"/>
<path d="M144.958 92.97C144.807 92.9418 144.652 92.9141 144.499 92.8863C144.653 92.9141 144.807 92.9418 144.958 92.97Z" fill="#6D184E"/>
<path d="M143.92 92.7816C143.743 92.7505 143.561 92.7199 143.382 92.6891C143.562 92.7198 143.743 92.7505 143.92 92.7816Z" fill="#6D184E"/>
<path d="M141.733 92.4151C141.354 92.3543 140.97 92.2937 140.58 92.2329C140.97 92.2937 141.354 92.3543 141.733 92.4151Z" fill="#6D184E"/>
<path d="M151.84 94.8054C151.786 94.7837 151.734 94.7617 151.68 94.7402C151.734 94.7616 151.786 94.7838 151.84 94.8054Z" fill="#6D184E"/>
<path d="M157.167 102.693C157.169 102.667 157.171 102.641 157.172 102.615C157.171 102.641 157.169 102.667 157.167 102.693Z" fill="#6D184E"/>
<path d="M152.501 95.0929C152.461 95.0746 152.423 95.0558 152.383 95.0377C152.423 95.0557 152.461 95.0746 152.501 95.0929Z" fill="#6D184E"/>
<path d="M148.731 93.7961C148.634 93.7707 148.535 93.7455 148.436 93.7205C148.535 93.7456 148.634 93.7707 148.731 93.7961Z" fill="#6D184E"/>
<path d="M149.574 94.0282C149.487 94.003 149.4 93.9782 149.312 93.9536C149.4 93.9782 149.487 94.0031 149.574 94.0282Z" fill="#6D184E"/>
<path d="M150.374 94.2733C150.298 94.2487 150.221 94.224 150.143 94.1996C150.221 94.224 150.298 94.2487 150.374 94.2733Z" fill="#6D184E"/>
<path d="M153.655 95.6966C153.655 95.6964 153.654 95.6962 153.654 95.6962L153.655 95.6966Z" fill="#6D184E"/>
<path d="M153.108 95.392C153.086 95.3801 153.064 95.3677 153.041 95.3559C153.064 95.3677 153.086 95.3801 153.108 95.392Z" fill="#6D184E"/>
<path d="M145.964 93.1649C145.826 93.1372 145.684 93.1101 145.544 93.0828C145.685 93.1101 145.826 93.1372 145.964 93.1649Z" fill="#6D184E"/>
<path d="M147.849 93.576C147.739 93.5499 147.628 93.5245 147.516 93.499C147.628 93.5245 147.739 93.55 147.849 93.576Z" fill="#6D184E"/>
<path d="M94.8072 57.8557C94.5627 57.6678 94.3224 57.4983 94.0847 57.34C94.3225 57.4984 94.5627 57.6677 94.8072 57.8557Z" fill="#6D184E"/>
<path d="M156.946 104.329C156.951 104.305 156.956 104.282 156.96 104.259C156.956 104.282 156.951 104.306 156.946 104.329Z" fill="#6D184E"/>
<path d="M157.197 101.865C157.197 101.888 157.197 101.911 157.197 101.934C157.197 101.911 157.197 101.888 157.197 101.865Z" fill="#6D184E"/>
<path d="M91.4528 56.1027C91.3055 56.0635 91.1601 56.03 91.0161 56.0018C91.1601 56.0301 91.3055 56.0634 91.4528 56.1027Z" fill="#6D184E"/>
<path d="M90.0256 55.8881C89.8644 55.8834 89.7047 55.8839 89.548 55.8926C89.7048 55.8839 89.8643 55.8834 90.0256 55.8881Z" fill="#6D184E"/>
<path d="M156.758 105.204C156.762 105.187 156.766 105.17 156.77 105.154C156.766 105.17 156.762 105.187 156.758 105.204Z" fill="#6D184E"/>
<path d="M93.8854 57.2102C93.6544 57.063 93.4256 56.9251 93.2012 56.8045C93.4256 56.9252 93.6545 57.0628 93.8854 57.2102Z" fill="#6D184E"/>
<path d="M93.0485 56.7279C92.8637 56.6328 92.6812 56.547 92.5009 56.4694C92.6812 56.5473 92.8637 56.6328 93.0485 56.7279Z" fill="#6D184E"/>
<path d="M92.2872 56.3783C92.0863 56.2982 91.8881 56.2289 91.6928 56.1694C91.8883 56.2291 92.0863 56.2981 92.2872 56.3783Z" fill="#6D184E"/>
<path d="M157.083 103.491C157.087 103.465 157.09 103.439 157.094 103.413C157.09 103.439 157.087 103.465 157.083 103.491Z" fill="#6D184E"/>
<path d="M79.8045 136.489C79.9449 132.347 78.7076 128.38 77.147 125.085C73.9931 118.426 65.5792 115.981 59.41 120.011C59.3778 120.032 59.3456 120.053 59.3135 120.074C45.4638 129.271 28.142 118.641 41.7412 97.2745C55.3403 75.908 19.4602 69.5884 25.425 36.2826C25.5553 35.5552 25.705 34.8555 25.8538 34.155C24.3873 34.0319 22.6868 34.1173 20.704 34.5115C15.3722 35.5717 15.392 26.0785 22.7793 16.0431C7.84046 28.2722 5.90204 44.1991 12.7258 42.8423C14.7087 42.4481 16.4092 42.3627 17.8756 42.4858C17.7269 43.1863 17.5772 43.8859 17.4469 44.6134C11.4821 77.9192 47.3622 84.2388 33.7631 105.605C20.1638 126.972 37.4857 137.602 51.3354 128.405C51.3674 128.384 51.3996 128.363 51.4319 128.342C57.601 124.312 66.0149 126.756 69.1689 133.416C70.7295 136.711 71.9669 140.678 71.8264 144.82C71.3974 157.473 69.0483 167.943 86.2494 167.571C90.3899 167.482 92.6436 163.417 92.6188 159.242C77.1784 158.931 79.3894 148.732 79.8045 136.489Z" fill="#6D184E"/>
<path d="M90.0256 55.8881C90.1138 55.8905 90.2029 55.8961 90.2925 55.9029C90.4292 55.913 90.5678 55.9287 90.7079 55.9489C90.8097 55.9637 90.9125 55.9816 91.016 56.0019C91.1601 56.0301 91.3055 56.0636 91.4527 56.1028C91.5326 56.1241 91.612 56.1448 91.6928 56.1695C91.8881 56.2291 92.0863 56.2984 92.2872 56.3783C92.3579 56.4064 92.4296 56.4387 92.5008 56.4695C92.6812 56.5472 92.8636 56.633 93.0484 56.728C93.0996 56.7542 93.1497 56.7769 93.2012 56.8046C93.4256 56.925 93.6544 57.0631 93.8854 57.2103C93.9517 57.2525 94.0179 57.2956 94.0847 57.3401C94.3224 57.4984 94.5626 57.668 94.8072 57.8558C94.8486 57.8875 94.8906 57.9232 94.9322 57.9558C95.1596 58.1346 95.3903 58.3276 95.6236 58.5332C95.6744 58.5779 95.7246 58.6202 95.7755 58.6662C96.0336 58.8989 96.2954 59.1502 96.5605 59.4172C96.6178 59.4749 96.6756 59.5351 96.7333 59.5944C97.01 59.8793 97.289 60.1764 97.5734 60.5001C108.016 72.391 109.992 74.4555 122.729 70.6681C135.466 66.8807 127.718 90.228 140.58 92.2328C140.97 92.2935 141.354 92.3542 141.733 92.415C141.876 92.438 142.016 92.4613 142.158 92.4845C142.387 92.5219 142.617 92.5591 142.842 92.5967C143.025 92.6272 143.202 92.6582 143.382 92.689C143.561 92.7198 143.743 92.7504 143.92 92.7815C144.116 92.816 144.307 92.8511 144.499 92.8862C144.652 92.9141 144.807 92.9418 144.958 92.9699C145.156 93.007 145.35 93.0449 145.544 93.0827C145.684 93.11 145.826 93.1371 145.964 93.1648C146.163 93.2048 146.358 93.2459 146.553 93.2869C146.677 93.3131 146.803 93.3391 146.925 93.3658C147.125 93.4093 147.321 93.454 147.516 93.4988C147.628 93.5244 147.739 93.5498 147.849 93.5759C148.048 93.6231 148.243 93.6716 148.436 93.7204C148.535 93.7455 148.634 93.7706 148.732 93.796C148.928 93.8474 149.121 93.9 149.312 93.9534C149.4 93.9781 149.487 94.0029 149.574 94.0281C149.767 94.084 149.957 94.1412 150.143 94.1996C150.221 94.224 150.298 94.2485 150.375 94.2733C150.564 94.3345 150.751 94.3971 150.933 94.4612C151 94.4846 151.065 94.5086 151.131 94.5324C151.317 94.6 151.501 94.6691 151.68 94.7402C151.734 94.7617 151.786 94.7836 151.84 94.8054C152.025 94.8811 152.207 94.9581 152.383 95.0377C152.423 95.0558 152.461 95.0746 152.501 95.0929C152.686 95.1783 152.867 95.2656 153.041 95.3559C153.064 95.3676 153.086 95.38 153.108 95.3919C153.296 95.4905 153.479 95.5914 153.654 95.6962C153.654 95.6962 153.655 95.6963 153.655 95.6964C155.376 96.7235 156.51 98.0598 156.969 99.8921C156.969 99.8935 156.969 99.8949 156.97 99.8963C157.019 100.092 157.059 100.295 157.092 100.502C157.094 100.514 157.097 100.525 157.098 100.537C157.13 100.739 157.153 100.947 157.17 101.161C157.171 101.179 157.173 101.197 157.174 101.216C157.189 101.426 157.197 101.643 157.197 101.865C157.197 101.888 157.197 101.911 157.197 101.934C157.196 102.155 157.188 102.383 157.172 102.615C157.171 102.641 157.169 102.667 157.167 102.692C157.15 102.927 157.125 103.167 157.094 103.413C157.09 103.439 157.087 103.465 157.083 103.491C157.05 103.74 157.009 103.996 156.96 104.259C156.956 104.282 156.951 104.306 156.947 104.329C156.895 104.597 156.837 104.872 156.77 105.154C156.766 105.171 156.762 105.187 156.758 105.204C156.688 105.495 156.61 105.794 156.522 106.101C156.522 106.101 156.522 106.102 156.522 106.103C159.416 104.459 161.929 102.29 163.921 99.5809C168.152 87.7546 161.421 85.907 148.559 83.9023C135.696 81.8975 143.445 58.5502 130.707 62.3376C117.97 66.125 115.994 64.0606 105.552 52.1696C95.3906 40.5984 90.0443 54.316 89.764 55.0627C89.6844 55.3368 89.6178 55.6154 89.5476 55.8928C89.5478 55.8928 89.5481 55.8928 89.5484 55.8928C89.7048 55.8838 89.8644 55.8834 90.0256 55.8881Z" fill="#6D184E"/>
<path d="M157.172 102.615C157.188 102.383 157.196 102.155 157.197 101.934C157.196 102.155 157.188 102.382 157.172 102.615Z" fill="#6D184E"/>
<path d="M157.17 101.16C157.153 100.947 157.13 100.739 157.098 100.537C157.13 100.739 157.153 100.947 157.17 101.16Z" fill="#6D184E"/>
<path d="M157.094 103.413C157.125 103.167 157.15 102.927 157.167 102.692C157.15 102.927 157.126 103.167 157.094 103.413Z" fill="#6D184E"/>
<path d="M157.092 100.502C157.059 100.295 157.019 100.092 156.97 99.8962C157.018 100.092 157.059 100.295 157.092 100.502Z" fill="#6D184E"/>
<path d="M152.383 95.0377C152.207 94.9581 152.025 94.8811 151.84 94.8054C152.025 94.8811 152.207 94.958 152.383 95.0377Z" fill="#6D184E"/>
<path d="M153.654 95.6961C153.479 95.5913 153.296 95.4904 153.108 95.3918C153.296 95.4905 153.479 95.5913 153.654 95.6961Z" fill="#6D184E"/>
<path d="M153.041 95.3559C152.867 95.2655 152.686 95.1783 152.501 95.0929C152.685 95.1784 152.867 95.2654 153.041 95.3559Z" fill="#6D184E"/>
<path d="M156.522 106.101C156.61 105.794 156.688 105.495 156.758 105.204C156.687 105.496 156.61 105.794 156.522 106.101Z" fill="#6D184E"/>
<path d="M156.96 104.259C157.009 103.996 157.05 103.74 157.083 103.49C157.049 103.74 157.009 103.996 156.96 104.259Z" fill="#6D184E"/>
<path d="M156.77 105.154C156.837 104.872 156.895 104.597 156.946 104.329C156.895 104.597 156.837 104.872 156.77 105.154Z" fill="#6D184E"/>
<path d="M92.5009 56.4694C92.4296 56.4386 92.3579 56.4064 92.2874 56.3782C92.3579 56.4064 92.4296 56.4388 92.5009 56.4694Z" fill="#6D184E"/>
<path d="M91.016 56.0019C90.9125 55.9816 90.8097 55.9637 90.7079 55.9489C90.8097 55.9636 90.9125 55.9816 91.016 56.0019Z" fill="#6D184E"/>
<path d="M91.6929 56.1694C91.6121 56.1447 91.5327 56.1239 91.4528 56.1027C91.5326 56.1239 91.6122 56.1449 91.6929 56.1694Z" fill="#6D184E"/>
<path d="M94.0848 57.34C94.018 57.2955 93.9518 57.2524 93.8855 57.2101C93.9517 57.2523 94.0182 57.2955 94.0848 57.34Z" fill="#6D184E"/>
<path d="M93.2013 56.8045C93.1498 56.7768 93.0997 56.7542 93.0485 56.7278C93.0997 56.7541 93.1499 56.7769 93.2013 56.8045Z" fill="#6D184E"/>
<path d="M153.655 95.6964C155.375 96.7242 156.51 98.0593 156.968 99.8921C156.51 98.0598 155.376 96.7235 153.655 95.6964Z" fill="#6D184E"/>
<path d="M90.2926 55.9029C90.203 55.8962 90.1139 55.8906 90.0257 55.8881C90.1137 55.8905 90.2029 55.8962 90.2926 55.9029Z" fill="#6D184E"/>
<path d="M157.174 101.216C157.189 101.426 157.196 101.643 157.197 101.865C157.196 101.643 157.189 101.426 157.174 101.216Z" fill="#6D184E"/>
<path d="M148.436 93.7205C148.243 93.6717 148.048 93.6232 147.849 93.576C148.048 93.6233 148.243 93.6716 148.436 93.7205Z" fill="#6D184E"/>
<path d="M95.7756 58.6662C95.7245 58.6202 95.6744 58.5779 95.6236 58.5332C95.6744 58.5778 95.7246 58.6202 95.7756 58.6662Z" fill="#6D184E"/>
<path d="M150.143 94.1997C149.957 94.1413 149.767 94.0841 149.574 94.0282C149.767 94.0842 149.957 94.1413 150.143 94.1997Z" fill="#6D184E"/>
<path d="M150.933 94.4613C150.75 94.3973 150.564 94.3347 150.374 94.2734C150.564 94.3348 150.751 94.3972 150.933 94.4613Z" fill="#6D184E"/>
<path d="M146.553 93.287C146.358 93.2461 146.163 93.2049 145.964 93.1649C146.163 93.205 146.358 93.2461 146.553 93.287Z" fill="#6D184E"/>
<path d="M143.382 92.689C143.202 92.6583 143.025 92.6273 142.842 92.5968C143.025 92.6274 143.202 92.6583 143.382 92.689Z" fill="#6D184E"/>
<path d="M142.158 92.4846C142.016 92.4614 141.876 92.4382 141.733 92.4151C141.876 92.4382 142.016 92.4614 142.158 92.4846Z" fill="#6D184E"/>
<path d="M144.499 92.8862C144.307 92.8513 144.116 92.816 143.92 92.7816C144.116 92.8161 144.307 92.8513 144.499 92.8862Z" fill="#6D184E"/>
<path d="M181.462 160.047C165.897 171.452 166.103 163.92 147.937 162.774L147.939 162.772C147.901 162.769 147.668 162.756 147.589 162.751C113.389 160.531 123.957 187.084 124.312 204.36C124.669 221.696 109.157 216.006 109.157 216.006C109.157 216.006 117.193 222.543 125.591 218.902C133.989 215.262 130.653 193.042 132.263 180.683C133.873 168.324 138.999 171.053 138.999 171.053C155.576 171.854 157.609 180.009 173.484 168.378C189.618 156.556 198.11 148.646 204.978 152.244C208.16 153.911 209.883 148.963 210.818 143.173C204.294 141.959 195.966 149.42 181.462 160.047Z" fill="#6D184E"/>
</g>
<path d="M56.1556 50.6242C54.4772 50.9019 53.342 52.4876 53.6199 54.1659L55.3339 64.5201C55.6116 66.1985 57.1973 67.3336 58.8756 67.0558C60.5539 66.778 61.6891 65.1924 61.4113 63.5141L59.6973 53.1598C59.4194 51.4815 57.8339 50.3464 56.1556 50.6242Z" fill="#0DF4FF"/>
<path d="M58.3701 68.2299C56.3475 68.2299 54.5576 66.7646 54.2164 64.7054L52.5025 54.3507C52.3189 53.2405 52.5783 52.1258 53.2333 51.2107C53.8883 50.2958 54.8603 49.6907 55.9704 49.5071C58.2636 49.1277 60.4351 50.6835 60.8145 52.9743L62.5283 63.3295C62.7119 64.4396 62.4526 65.5544 61.7976 66.4694C61.1426 67.3838 60.1705 67.9889 59.0604 68.1725C58.8287 68.2109 58.5977 68.2299 58.3701 68.2299ZM56.6595 51.7148C56.5543 51.7148 56.4478 51.7237 56.3405 51.7411C55.8273 51.8263 55.3776 52.1062 55.0748 52.5292C54.772 52.9522 54.6521 53.4678 54.737 53.9813L56.4509 64.3354C56.6261 65.394 57.6295 66.1101 58.6906 65.9386C59.2038 65.8533 59.6535 65.5734 59.9562 65.151C60.259 64.728 60.3789 64.2124 60.294 63.6989L58.5802 53.3442C58.4225 52.3925 57.5947 51.7148 56.6595 51.7148Z" fill="#6D184E"/>
<path d="M94.0856 31.3943C92.9093 32.6232 92.952 34.5729 94.1809 35.7492L101.763 43.0062C102.991 44.1825 104.941 44.1399 106.117 42.911C107.294 41.6821 107.251 39.7325 106.022 38.5562L98.4404 31.2991C97.2115 30.1228 95.2618 30.1655 94.0856 31.3943Z" fill="#0DF4FF"/>
<path d="M103.891 44.9915C102.844 44.9915 101.795 44.6043 100.98 43.8246L93.3977 36.5672C91.7202 34.961 91.6618 32.2893 93.2676 30.6115C94.0457 29.7987 95.0937 29.3373 96.2186 29.3125C97.3353 29.3025 98.4107 29.7029 99.2239 30.4811L106.805 37.7379C107.618 38.5161 108.079 39.5641 108.104 40.689C108.128 41.8138 107.714 42.8814 106.935 43.6937C106.109 44.557 105.001 44.9915 103.891 44.9915ZM94.9036 32.1773C94.1612 32.9533 94.1881 34.1886 94.9639 34.931L102.546 42.1884C103.321 42.9308 104.557 42.9034 105.299 42.1279C105.659 41.7522 105.851 41.2587 105.84 40.7389C105.828 40.2185 105.615 39.734 105.239 39.3741L97.6575 32.1172C97.2819 31.7574 96.7762 31.5575 96.2683 31.5769C95.7481 31.588 95.2632 31.8016 94.9036 32.1773Z" fill="#6D184E"/>
<path d="M144.773 71.0661C143.243 71.8103 142.607 73.6536 143.351 75.1832L147.943 84.6206C148.687 86.1502 150.53 86.7869 152.06 86.0427C153.589 85.2984 154.226 83.4552 153.482 81.9255L148.89 72.4882C148.146 70.9585 146.303 70.3218 144.773 71.0661Z" fill="#0DF4FF"/>
<path d="M150.719 87.4849C149.156 87.4849 147.653 86.6131 146.924 85.1162L142.332 75.6786C141.84 74.6668 141.771 73.5236 142.139 72.4603C142.506 71.3965 143.266 70.54 144.278 70.0475C145.29 69.5556 146.432 69.4856 147.496 69.8539C148.559 70.2211 149.416 70.9808 149.908 71.9931L154.5 81.4297C155.516 83.5184 154.644 86.0448 152.555 87.0608C151.964 87.3486 151.337 87.4849 150.719 87.4849ZM146.119 71.8869C145.828 71.8869 145.538 71.9532 145.269 72.0842C145.269 72.0842 145.269 72.0842 145.269 72.0847C144.801 72.312 144.449 72.7082 144.28 73.1996C144.11 73.6916 144.142 74.2198 144.369 74.6875L148.961 84.1251C149.431 85.0917 150.599 85.4946 151.565 85.0243C152.53 84.5545 152.934 83.3865 152.464 82.4205L147.872 72.984C147.644 72.5157 147.248 72.1648 146.757 71.9949C146.548 71.9227 146.333 71.8869 146.119 71.8869Z" fill="#6D184E"/>
<path d="M80.3924 105.498C78.6983 105.345 77.2004 106.593 77.0468 108.288L76.099 118.74C75.9454 120.434 77.1942 121.932 78.8883 122.085C80.5825 122.239 82.0803 120.99 82.234 119.296L83.1817 108.844C83.3354 107.15 82.0866 105.652 80.3924 105.498Z" fill="#0DF4FF"/>
<path d="M79.1695 123.231C79.0426 123.231 78.9148 123.225 78.7859 123.213C77.6653 123.111 76.6514 122.579 75.9309 121.716C75.2104 120.851 74.8697 119.758 74.9713 118.638L75.9192 108.185C76.1291 105.872 78.1826 104.164 80.4949 104.37C81.6155 104.472 82.6294 105.004 83.3499 105.868C84.0705 106.733 84.4112 107.825 84.3096 108.946L83.3618 119.398C83.1635 121.583 81.3218 123.231 79.1695 123.231ZM80.1107 106.618C79.6564 106.618 79.2202 106.775 78.8669 107.07C78.4673 107.403 78.2216 107.872 78.1745 108.389L77.2267 118.842C77.1796 119.36 77.3372 119.866 77.6705 120.265C78.0036 120.665 78.4723 120.91 78.9906 120.957C80.0568 121.062 81.0093 120.263 81.1062 119.194L82.0539 108.742C82.101 108.224 81.9435 107.718 81.6101 107.319C81.277 106.919 80.8083 106.673 80.29 106.626C80.23 106.621 80.1703 106.618 80.1107 106.618Z" fill="#6D184E"/>
<path d="M61.5354 91.2142C60.6301 89.774 58.7288 89.3403 57.2887 90.2456L48.4031 95.8308C46.9629 96.7361 46.5292 98.6373 47.4345 100.077C48.3397 101.518 50.241 101.951 51.6812 101.046L60.5668 95.4611C62.0071 94.5556 62.4407 92.6544 61.5354 91.2142Z" fill="#FFD00D"/>
<path d="M50.049 102.65C48.6472 102.65 47.275 101.952 46.4758 100.68C45.8769 99.7272 45.6851 98.5987 45.9353 97.5017C46.1855 96.4042 46.8478 95.4703 47.8006 94.8722L56.686 89.2869C58.6534 88.051 61.2583 88.6461 62.4938 90.6117C63.7299 92.5778 63.1357 95.1832 61.1694 96.4195L52.2839 102.005C51.5892 102.442 50.8145 102.65 50.049 102.65ZM58.9244 90.9062C58.5706 90.9062 58.2123 91.0026 57.8911 91.2041L49.0056 96.7894C48.565 97.0661 48.2588 97.4981 48.1431 98.0052C48.0275 98.5124 48.1162 99.0344 48.3932 99.4753C48.9643 100.384 50.1689 100.658 51.0788 100.088L59.964 94.5023C60.8732 93.9303 61.148 92.7261 60.5766 91.8164C60.2072 91.2287 59.5726 90.9062 58.9244 90.9062Z" fill="#6D184E"/>
<path d="M140.81 148.032C139.905 146.591 138.003 146.158 136.563 147.063L127.678 152.648C126.237 153.553 125.804 155.455 126.709 156.895C127.614 158.335 129.516 158.769 130.956 157.863L139.841 152.278C141.282 151.373 141.715 149.472 140.81 148.032Z" fill="#0DF4FF"/>
<path d="M129.324 159.47C129.01 159.47 128.694 159.434 128.38 159.363C127.283 159.113 126.349 158.45 125.75 157.497C125.151 156.545 124.959 155.416 125.21 154.319C125.46 153.222 126.122 152.288 127.075 151.69L135.96 146.105C136.913 145.505 138.041 145.313 139.139 145.564C140.236 145.814 141.17 146.477 141.769 147.429C143.005 149.395 142.41 152.001 140.444 153.237L131.558 158.822C130.878 159.25 130.108 159.47 129.324 159.47ZM138.198 147.722C137.836 147.722 137.48 147.824 137.166 148.022L128.28 153.607C127.84 153.884 127.534 154.316 127.418 154.823C127.302 155.33 127.391 155.851 127.668 156.292C127.945 156.733 128.376 157.039 128.884 157.155C129.39 157.271 129.912 157.182 130.353 156.905L139.239 151.32C140.148 150.748 140.423 149.544 139.851 148.634C139.574 148.194 139.143 147.887 138.635 147.772C138.49 147.739 138.344 147.722 138.198 147.722Z" fill="#6D184E"/>
<path d="M154.671 117.983C153.088 118.607 152.31 120.395 152.933 121.978L156.78 131.743C157.403 133.325 159.191 134.103 160.774 133.48C162.357 132.856 163.135 131.068 162.511 129.485L158.665 119.72C158.042 118.137 156.253 117.36 154.671 117.983Z" fill="#FFD00D"/>
<path d="M159.65 134.826C157.97 134.826 156.378 133.814 155.726 132.158L151.88 122.393C151.029 120.232 152.094 117.781 154.255 116.929C155.303 116.517 156.447 116.537 157.479 116.986C158.511 117.434 159.306 118.258 159.719 119.305L163.565 129.07C163.977 130.117 163.957 131.262 163.508 132.294C163.06 133.325 162.236 134.121 161.189 134.533C160.684 134.732 160.163 134.826 159.65 134.826ZM155.086 119.037C154.602 119.228 154.221 119.595 154.013 120.072C153.806 120.549 153.796 121.078 153.987 121.562L157.833 131.328C158.226 132.327 159.36 132.82 160.359 132.426C160.843 132.235 161.224 131.867 161.431 131.39C161.639 130.914 161.648 130.384 161.457 129.9L157.611 120.136C157.421 119.651 157.053 119.27 156.576 119.063C156.099 118.855 155.57 118.846 155.086 119.037Z" fill="#6D184E"/>
<path d="M126.385 45.5385C125.913 47.1728 126.855 48.8803 128.49 49.3524L138.572 52.2652C140.207 52.7374 141.914 51.7953 142.386 50.161C142.859 48.5267 141.916 46.8192 140.282 46.3471L130.199 43.4343C128.565 42.9621 126.857 43.9042 126.385 45.5385Z" fill="#FFD00D"/>
<path d="M139.425 53.5189C139.039 53.5189 138.647 53.4653 138.258 53.3532L128.175 50.4406C125.944 49.7956 124.653 47.4554 125.297 45.2247C125.942 42.9934 128.282 41.7044 130.513 42.3462L140.596 45.2594C141.677 45.5718 142.572 46.2858 143.116 47.2713C143.659 48.2562 143.786 49.3942 143.474 50.4753C142.942 52.3177 141.253 53.5189 139.425 53.5189ZM127.473 45.8527C127.175 46.8844 127.772 47.9661 128.804 48.2645L138.887 51.1771C139.918 51.477 141 50.8778 141.299 49.847C141.443 49.3467 141.384 48.8206 141.132 48.3655C140.881 47.9098 140.468 47.5794 139.968 47.4353L129.885 44.5221C128.853 44.2239 127.771 44.821 127.473 45.8527Z" fill="#6D184E"/>
<path d="M164.341 96.9149C163.869 98.5492 164.811 100.257 166.446 100.729L176.528 103.642C178.163 104.114 179.87 103.172 180.342 101.537C180.815 99.9031 179.873 98.1956 178.238 97.7235L168.155 94.8107C166.521 94.3385 164.814 95.2806 164.341 96.9149Z" fill="#0DF4FF"/>
<path d="M177.381 104.895C176.995 104.895 176.603 104.842 176.214 104.73L166.131 101.817C163.9 101.172 162.609 98.8318 163.253 96.6011C163.898 94.3698 166.239 93.0808 168.469 93.7226L178.552 96.6352C180.784 97.2802 182.075 99.6204 181.43 101.851C180.898 103.694 179.21 104.895 177.381 104.895ZM165.429 97.2292C165.131 98.261 165.728 99.3426 166.76 99.641L176.843 102.554C177.875 102.853 178.957 102.254 179.254 101.223C179.553 100.191 178.955 99.1096 177.924 98.8112L167.841 95.8986C166.811 95.6008 165.727 96.1974 165.429 97.2292Z" fill="#6D184E"/>
<path d="M184.2 147.646C185.355 148.895 187.303 148.971 188.552 147.816L196.257 140.69C197.506 139.535 197.582 137.587 196.428 136.338C195.273 135.089 193.324 135.013 192.075 136.168L184.37 143.293C183.121 144.449 183.045 146.397 184.2 147.646Z" fill="#FFD52B"/>
<path d="M186.463 149.765C185.328 149.765 184.197 149.311 183.368 148.415C181.791 146.71 181.896 144.04 183.601 142.462L191.306 135.337C192.132 134.572 193.205 134.175 194.331 134.22C195.455 134.264 196.495 134.743 197.259 135.569C198.836 137.275 198.731 139.945 197.026 141.522L189.321 148.648C188.512 149.396 187.486 149.765 186.463 149.765ZM194.164 136.482C193.673 136.482 193.207 136.664 192.844 136.999L185.139 144.125C184.35 144.854 184.302 146.089 185.031 146.877C185.761 147.666 186.995 147.715 187.784 146.985L195.488 139.859C196.277 139.13 196.325 137.895 195.596 137.107C195.243 136.725 194.762 136.503 194.242 136.483C194.216 136.482 194.19 136.482 194.164 136.482Z" fill="#6D184E"/>
<path d="M163.551 75.0928C163.792 76.7767 165.353 77.9462 167.037 77.705L177.426 76.2168C179.11 75.9756 180.279 74.4151 180.038 72.7312C179.797 71.0473 178.236 69.8778 176.552 70.1191L166.163 71.6072C164.479 71.8483 163.31 73.4089 163.551 75.0928Z" fill="#FFD52B"/>
<path d="M166.591 78.8691C165.687 78.8691 164.81 78.5793 164.074 78.0268C163.173 77.3523 162.59 76.3669 162.43 75.2531C162.101 72.9545 163.703 70.8158 166.003 70.4859L176.392 68.998C177.505 68.8402 178.615 69.1216 179.515 69.7972C180.416 70.4717 181 71.4571 181.159 72.5709C181.488 74.8695 179.886 77.0082 177.587 77.3381L167.197 78.826C166.995 78.8549 166.792 78.8691 166.591 78.8691ZM176.994 71.2198C176.901 71.2198 176.807 71.2266 176.713 71.2403L166.324 72.7282C165.261 72.8802 164.52 73.8694 164.672 74.9321C164.746 75.4472 165.016 75.9028 165.432 76.2148C165.848 76.5268 166.362 76.6583 166.876 76.5836L177.265 75.0957C178.328 74.9437 179.069 73.9545 178.917 72.8918C178.843 72.3767 178.573 71.9211 178.157 71.6091C177.817 71.354 177.412 71.2198 176.994 71.2198Z" fill="#6D184E"/>
<path d="M96.0847 134.04C97.2673 135.263 99.2171 135.296 100.44 134.113L107.984 126.817C109.207 125.635 109.24 123.685 108.057 122.462C106.874 121.239 104.925 121.206 103.702 122.389L96.1575 129.685C94.9347 130.868 94.902 132.817 96.0847 134.04Z" fill="#FFD52B"/>
<path d="M98.3006 136.112C98.2763 136.112 98.2524 136.111 98.2283 136.111C97.1034 136.092 96.053 135.637 95.2706 134.828H95.2703C93.6559 133.158 93.7006 130.485 95.3703 128.871L102.914 121.575C103.723 120.793 104.78 120.354 105.913 120.391C107.038 120.41 108.089 120.866 108.871 121.675C110.486 123.344 110.441 126.017 108.771 127.631L101.227 134.927C100.436 135.692 99.3989 136.112 98.3006 136.112ZM96.8987 133.253C97.6453 134.025 98.8807 134.046 99.6525 133.299L107.197 126.003C107.969 125.257 107.99 124.021 107.243 123.249C106.881 122.875 106.396 122.664 105.875 122.656C105.349 122.633 104.863 122.84 104.489 123.203L96.9449 130.499C96.1726 131.246 96.1521 132.481 96.8987 133.253Z" fill="#6D184E"/>
<path d="M70.8557 37.265C72.2491 36.2892 72.5878 34.3688 71.6121 32.9752L65.5923 24.3782C64.6166 22.9848 62.6961 22.6461 61.3027 23.6218C59.9092 24.5976 59.5706 26.518 60.5463 27.9115L66.566 36.5086C67.5417 37.902 69.4621 38.2407 70.8557 37.265Z" fill="#FFD52B"/>
<path d="M69.0978 38.9553C68.8522 38.9553 68.6046 38.9342 68.3576 38.8905C67.2493 38.6948 66.2838 38.0798 65.6383 37.1585L59.6186 28.5606C58.9733 27.6394 58.7253 26.5213 58.9207 25.4133C59.1162 24.3054 59.7312 23.3394 60.653 22.6944C61.5745 22.0494 62.6929 21.8005 63.8005 21.9963C64.9088 22.1919 65.8743 22.807 66.5198 23.7282L72.5395 32.3262C73.1848 33.2474 73.4328 34.3654 73.2374 35.4734C73.0419 36.5814 72.4269 37.5474 71.5051 38.1924C70.7888 38.6939 69.9543 38.9553 69.0978 38.9553ZM63.0654 24.1965C62.6692 24.1965 62.2833 24.3175 61.9523 24.5495C61.5259 24.8479 61.2415 25.2945 61.1513 25.8064C61.0608 26.3189 61.1755 26.8361 61.4738 27.2617L67.4934 35.8596C67.7917 36.2852 68.2384 36.5699 68.7506 36.6599C69.2632 36.7519 69.7799 36.6356 70.2058 36.3374C70.2062 36.3374 70.2062 36.3374 70.2062 36.3374C70.6323 36.039 70.9167 35.5924 71.007 35.0804C71.0975 34.568 70.9827 34.0508 70.6845 33.6252L64.6648 25.0273C64.3664 24.6017 63.9198 24.317 63.4077 24.227C63.2931 24.2065 63.1787 24.1965 63.0654 24.1965Z" fill="#6D184E"/>
<path d="M246.856 81.776H269.96C277.085 81.776 282.525 83.4827 286.28 86.896C290.077 90.3093 291.976 95.8773 291.976 103.6C291.976 118.533 284.339 126 269.064 126H246.856V81.776ZM268.36 100.4V111.472H270.152C270.664 111.472 271.091 111.301 271.432 110.96C271.816 110.619 272.008 110.171 272.008 109.616V102.192C272.008 101.68 271.816 101.253 271.432 100.912C271.091 100.571 270.664 100.4 270.152 100.4H268.36ZM316.726 81.136H322.038C329.718 81.136 335.307 82.9493 338.806 86.576C342.305 90.2027 344.054 95.8987 344.054 103.664C344.054 111.429 342.283 117.211 338.742 121.008C335.243 124.763 329.675 126.64 322.038 126.64H316.726C309.089 126.64 303.499 124.763 299.958 121.008C296.417 117.211 294.646 111.429 294.646 103.664C294.646 95.8987 296.395 90.2027 299.894 86.576C303.435 82.9493 309.046 81.136 316.726 81.136ZM317.558 102.192V109.616C317.558 110.171 317.707 110.619 318.006 110.96C318.347 111.301 318.774 111.472 319.286 111.472C319.841 111.472 320.289 111.301 320.63 110.96C321.014 110.619 321.206 110.171 321.206 109.616V102.192C321.206 101.68 321.014 101.253 320.63 100.912C320.289 100.571 319.841 100.4 319.286 100.4C318.774 100.4 318.347 100.571 318.006 100.912C317.707 101.253 317.558 101.68 317.558 102.192ZM346.856 81.776H366.44L370.472 94.96V81.776H390.184V126H370.472L367.08 113.072V126H346.856V81.776ZM418.623 81.776H439.679V106.352C439.679 113.264 437.908 118.384 434.367 121.712C430.868 124.997 425.279 126.64 417.599 126.64H415.935C408.297 126.64 402.708 124.976 399.167 121.648C395.668 118.32 393.919 113.221 393.919 106.352V81.776H414.911V108.72C414.911 109.275 415.081 109.723 415.423 110.064C415.764 110.363 416.191 110.512 416.703 110.512C417.257 110.512 417.705 110.341 418.047 110C418.431 109.659 418.623 109.232 418.623 108.72V81.776ZM443.356 100.4V81.776H482.78V100.4H474.972V126H451.036V100.4H443.356ZM486.481 81.776H508.497V109.552H515.025V126H486.481V81.776ZM550.628 126H526.628V115.568C525.433 115.056 524.601 114.693 524.132 114.48C523.662 114.267 522.894 113.819 521.828 113.136C520.804 112.453 520.036 111.749 519.524 111.024C518.116 109.104 517.22 106.736 516.836 103.92L514.084 81.776H536.74L538.34 103.664H539.748L541.092 81.776H563.172L560.42 103.92C560.036 106.736 559.14 109.104 557.732 111.024C557.22 111.749 556.43 112.453 555.364 113.136C554.34 113.819 553.593 114.267 553.124 114.48C552.654 114.693 551.822 115.056 550.628 115.568V126Z" fill="#6D184E"/>
</svg>
